<svg
   width="80mm"
   height="80mm"
   viewBox="0 0 80 80"
   version="1.1"
   id="svg12"
   xmlns="http://www.w3.org/2000/svg"
   xmlns:svg="http://www.w3.org/2000/svg">
  <defs
     id="defs9" />
  <g
     id="layer1">
    <g
       id="g924">
      <ellipse
         style="fill:#d45500;fill-rule:evenodd;stroke-width:0.270842"
         id="path118"
         cx="40.22546"
         cy="45.410683"
         rx="39.373486"
         ry="34.37685" />
      <path
         style="fill:#d45500"
         id="path164"
         d="m 190.36,296.11555 c -10.09248,-5.18354 -8.41901,-42.26349 -7.20871,-53.54456 1.53689,-14.32513 7.87725,-57.82321 19.98558,-65.6309 9.53532,-6.14857 40.81076,13.84067 49.9753,20.52936 11.63749,8.49355 46.13775,35.7335 46.84524,50.12346 0.55716,11.33212 -32.39175,28.42283 -42.76659,33.01521 -13.17438,5.83158 -54.015,22.0897 -66.83082,15.50743 z"
         transform="matrix(0.27904284,0,0,0.32033967,-46.952623,-54.964909)" />
      <path
         style="fill:#d45500"
         id="path164-8"
         transform="matrix(0.26240152,0,0,0.34036567,3.0868288,-60.542089)"
         d="m 166.00738,251.49349 c -3.50044,-10.30891 20.65042,-35.99316 29.01265,-42.96452 10.69426,-8.91552 45.28114,-33.08288 58.93699,-30.36784 10.678,2.12299 20.84578,35.88037 22.70205,46.60796 2.37393,13.71926 6.01004,55.75605 -3.16918,66.22484 -7.17757,8.18593 -41.4962,0.1128 -51.7147,-3.64342 -13.06819,-4.80375 -51.29118,-22.67318 -55.76781,-35.85702 z" />
      <text
         xml:space="preserve"
         style="font-size:41.5372px;line-height:1.25;font-family:Courier;-inkscape-font-specification:Courier;fill:#ffffff;stroke-width:0.432679"
         x="11.997766"
         y="43.265862"
         id="text1450"
         transform="scale(0.82572592,1.2110556)"><tspan
           id="tspan1448"
           style="font-size:41.5372px;fill:#ffffff;stroke-width:0.432679"
           x="11.997766"
           y="43.265862">&lt;/&gt;</tspan></text>
      <path
         style="fill:#000000;stroke:#03070b;stroke-opacity:1"
         id="path7237"
         d="m 67.125806,382.56251 c 1.729284,2.74651 -2.524681,12.04725 -4.038586,14.91811 -1.513906,2.87086 -6.78603,11.63469 -10.029219,11.75904 -3.243189,0.12435 -9.170887,-8.21007 -10.900171,-10.95658 -1.729284,-2.74651 -6.682923,-11.69422 -5.169018,-14.56507 1.513905,-2.87086 11.695568,-3.83719 14.938757,-3.96154 3.243189,-0.12435 13.468953,0.0595 15.198237,2.80604 z"
         transform="matrix(0.26458333,0,0,0.26458333,26.496859,-43.157096)" />
      <path
         style="fill:#aa4400"
         id="path164-1"
         transform="matrix(0.10738813,0,0,0.15114186,-11.530811,-22.697699)"
         d="m 190.36,296.11555 c -10.09248,-5.18354 -8.41901,-42.26349 -7.20871,-53.54456 1.53689,-14.32513 7.87725,-57.82321 19.98558,-65.6309 9.53532,-6.14857 40.81076,13.84067 49.9753,20.52936 11.63749,8.49355 46.13775,35.7335 46.84524,50.12346 0.55716,11.33212 -32.39175,28.42283 -42.76659,33.01521 -13.17438,5.83158 -54.015,22.0897 -66.83082,15.50743 z" />
      <path
         style="fill:#aa4400"
         id="path164-8-8"
         transform="matrix(0.10890622,0,0,0.16584306,42.228127,-27.473244)"
         d="m 166.00738,251.49349 c -3.50044,-10.30891 20.65042,-35.99316 29.01265,-42.96452 10.69426,-8.91552 45.28114,-33.08288 58.93699,-30.36784 10.678,2.12299 20.84578,35.88037 22.70205,46.60796 2.37393,13.71926 6.01004,55.75605 -3.16918,66.22484 -7.17757,8.18593 -41.4962,0.1128 -51.7147,-3.64342 -13.06819,-4.80375 -51.29118,-22.67318 -55.76781,-35.85702 z" />
      <path
         style="fill:#aa4400;stroke:#03070b;stroke-opacity:0.0202429"
         id="path9909"
         d="m 84.693663,339.81385 c -4.261367,6.68259 -29.234823,6.98816 -37.152807,6.63901 -7.917983,-0.34916 -32.76761,-2.85173 -36.424226,-9.88348 -3.656616,-7.03175 8.565485,-28.81218 12.826852,-35.49478 4.261367,-6.6826 18.853472,-26.95172 26.771455,-26.60257 7.917984,0.34916 20.669339,21.82402 24.325955,28.85577 3.656617,7.03175 13.914138,29.80345 9.652771,36.48605 z"
         transform="matrix(-0.01652659,0.06396408,-0.24996282,-0.00422905,92.894037,57.889079)" />
      <path
         style="fill:#aa4400;stroke:#03070b;stroke-opacity:0.0202429"
         id="path9909-1"
         transform="matrix(-0.02261694,0.0527435,-0.34207862,-0.00348719,129.77077,65.050589)"
         d="m 84.693663,339.81385 c -4.261367,6.68259 -29.234823,6.98816 -37.152807,6.63901 -7.917983,-0.34916 -32.76761,-2.85173 -36.424226,-9.88348 -3.656616,-7.03175 8.565485,-28.81218 12.826852,-35.49478 4.261367,-6.6826 18.853472,-26.95172 26.771455,-26.60257 7.917984,0.34916 20.669339,21.82402 24.325955,28.85577 3.656617,7.03175 13.914138,29.80345 9.652771,36.48605 z" />
      <path
         style="fill:#aa4400;stroke:#03070b;stroke-opacity:0.0202429"
         id="path9909-4"
         transform="matrix(-0.01307295,0.04631008,-0.19772697,-0.00306184,87.419707,71.380629)"
         d="m 84.693663,339.81385 c -4.261367,6.68259 -29.234823,6.98816 -37.152807,6.63901 -7.917983,-0.34916 -32.76761,-2.85173 -36.424226,-9.88348 -3.656616,-7.03175 8.565485,-28.81218 12.826852,-35.49478 4.261367,-6.6826 18.853472,-26.95172 26.771455,-26.60257 7.917984,0.34916 20.669339,21.82402 24.325955,28.85577 3.656617,7.03175 13.914138,29.80345 9.652771,36.48605 z" />
      <path
         style="fill:#aa4400;stroke:#03070b;stroke-opacity:0.0202429"
         id="path9909-8"
         transform="matrix(0.01652659,0.06396408,0.24996282,-0.00422905,-12.080728,57.479189)"
         d="m 84.693663,339.81385 c -4.261367,6.68259 -29.234823,6.98816 -37.152807,6.63901 -7.917983,-0.34916 -32.76761,-2.85173 -36.424226,-9.88348 -3.656616,-7.03175 8.565485,-28.81218 12.826852,-35.49478 4.261367,-6.6826 18.853472,-26.95172 26.771455,-26.60257 7.917984,0.34916 20.669339,21.82402 24.325955,28.85577 3.656617,7.03175 13.914138,29.80345 9.652771,36.48605 z" />
      <path
         style="fill:#aa4400;stroke:#03070b;stroke-opacity:0.0202429"
         id="path9909-1-9"
         transform="matrix(0.02261694,0.0527435,0.34207862,-0.00348719,-48.957459,64.640699)"
         d="m 84.693663,339.81385 c -4.261367,6.68259 -29.234823,6.98816 -37.152807,6.63901 -7.917983,-0.34916 -32.76761,-2.85173 -36.424226,-9.88348 -3.656616,-7.03175 8.565485,-28.81218 12.826852,-35.49478 4.261367,-6.6826 18.853472,-26.95172 26.771455,-26.60257 7.917984,0.34916 20.669339,21.82402 24.325955,28.85577 3.656617,7.03175 13.914138,29.80345 9.652771,36.48605 z" />
      <path
         style="fill:#aa4400;stroke:#03070b;stroke-opacity:0.0202429"
         id="path9909-4-0"
         transform="matrix(0.01307295,0.04631008,0.19772697,-0.00306184,-6.6063982,70.970739)"
         d="m 84.693663,339.81385 c -4.261367,6.68259 -29.234823,6.98816 -37.152807,6.63901 -7.917983,-0.34916 -32.76761,-2.85173 -36.424226,-9.88348 -3.656616,-7.03175 8.565485,-28.81218 12.826852,-35.49478 4.261367,-6.6826 18.853472,-26.95172 26.771455,-26.60257 7.917984,0.34916 20.669339,21.82402 24.325955,28.85577 3.656617,7.03175 13.914138,29.80345 9.652771,36.48605 z" />
    </g>
  </g>
</svg>
