<svg
   version="1.1"
   id="svg1"
   width="1587.1466"
   height="3205.9067"
   viewBox="0 0 1587.1466 3205.9067"
   xmlns="http://www.w3.org/2000/svg"
   xmlns:svg="http://www.w3.org/2000/svg">
  <defs
     id="defs1" />
  <g
     id="g1"
     transform="translate(-42.625374,-25.244944)">
    <g
       id="group-R5"
       transform="translate(-5036.8945,-768.84847)">
      <g
         id="g10">
        <path
           id="path3"
           d="m 45366.2,23108.4 c -705.5,-298.4 -1386,-667.8 -2022.4,-1097.7 -630.1,-425.7 -1222.6,-914.5 -1760.9,-1452.9 -538.4,-538.4 -1027.3,-1130.9 -1453,-1761 -429.9,-636.4 -799.2,-1316.8 -1097.7,-2022.4 -621,-1468.2 -935.8,-3027.2 -935.8,-4633.7 V 0 h 2131.5 v 12140.7 c 0,5388.3 4383.7,9772.1 9772.1,9772.1 v 2131.5 c -1606.5,0 -3165.5,-314.9 -4633.8,-935.9"
           style="fill:#245155;fill-opacity:1;fill-rule:nonzero;stroke:none"
           transform="matrix(0.13333333,0,0,-0.13333333,0,4000)" />
        <path
           id="path4"
           d="m 46361.9,20751.6 c -554.1,-234.3 -1088.3,-524.3 -1588,-861.9 -494.6,-334.2 -959.7,-717.9 -1382.4,-1140.6 -422.6,-422.6 -806.4,-887.7 -1140.6,-1382.4 -337.5,-499.6 -627.5,-1033.9 -861.8,-1587.9 -487.7,-1152.9 -734.9,-2376.9 -734.9,-3638.1 V 0 h 2131.5 v 12140.7 c 0,3977.9 3236.3,7214.2 7214.3,7214.2 v 2131.6 c -1261.2,0 -2485.3,-247.3 -3638.1,-734.9"
           style="fill:#c34b25;fill-opacity:1;fill-rule:nonzero;stroke:none"
           transform="matrix(0.13333333,0,0,-0.13333333,0,4000)" />
        <path
           id="path5"
           d="m 47357.5,18394.8 c -808.5,-342 -1534.3,-831.3 -2157.3,-1454.3 -623.1,-623.1 -1112.4,-1348.9 -1454.3,-2157.3 -354.3,-837.6 -533.9,-1726.6 -533.9,-2642.5 L 43212,0 h 2131.5 v 12140.7 c 0,2567.5 2088.9,4656.4 4656.5,4656.4 v 2131.5 c -915.9,0 -1805,-179.6 -2642.5,-533.8"
           style="fill:#e87b6f;fill-opacity:1;fill-rule:nonzero;stroke:none"
           transform="matrix(0.13333333,0,0,-0.13333333,0,4000)" />
        <path
           id="path6"
           d="m 48353.1,16037.9 c -503.9,-213.1 -956.1,-517.9 -1344.3,-906.1 -388.1,-388.1 -693,-840.4 -906.1,-1344.3 -220.9,-522.2 -332.9,-1076.3 -332.9,-1646.9 V 0 h 2131.5 v 12140.6 c 0,1157.2 941.5,2098.7 2098.7,2098.7 v 2131.5 c -570.6,0 -1124.7,-112 -1646.9,-332.9"
           style="fill:#f5a81a;fill-opacity:1;fill-rule:nonzero;stroke:none"
           transform="matrix(0.13333333,0,0,-0.13333333,0,4000)" />
      </g>
    </g>
  </g>
</svg>
